<svg width="45" height="45" viewBox="0 0 49 45" fill="none" xmlns="http://www.w3.org/2000/svg">
<g id="Group 2">
<path id="Vector" d="M40.6349 8.45813C40.6349 8.45813 40.6481 8.6415 40.6521 8.97591L40.6537 9.10854C40.654 9.15546 40.6562 9.20208 40.6513 9.26154C40.6411 9.38555 40.6308 9.50956 40.6205 9.63356C40.6081 9.76688 40.5966 9.91694 40.5793 10.0669C40.5616 10.2141 40.5447 10.3724 40.5214 10.5379C40.4122 11.3379 40.2459 12.1291 40.0239 12.9054C39.7684 13.8073 39.4089 14.8107 38.9138 15.8676C38.4204 16.9252 37.784 18.0299 37.0032 19.1349C36.9085 19.2759 36.8044 19.4098 36.7021 19.5474L36.5469 19.7539L36.4688 19.8577L36.4492 19.8838C36.5108 19.8271 36.3541 19.9758 36.3674 19.9643L36.3593 19.9752L36.3266 20.0186C36.1537 20.2513 35.9713 20.479 35.7909 20.7135L35.7739 20.7354L35.7499 20.7624L35.7015 20.8167L35.6043 20.9254L35.4061 21.1412L35.0022 21.5749L34.9002 21.6835L34.8043 21.7817C34.7402 21.8477 34.6754 21.9128 34.6098 21.9772L34.2142 22.3681C33.1439 23.4049 31.9283 24.3705 30.608 25.228C29.2693 26.0948 27.8505 26.8313 26.3711 27.4272C24.8908 28.0253 23.3572 28.4822 21.7909 28.7919C20.2425 29.0961 18.6923 29.2484 17.1957 29.2561C15.6989 29.2643 14.2572 29.1312 12.9175 28.8923C12.247 28.7785 11.6031 28.6231 10.9874 28.4633C10.3734 28.2885 9.78653 28.1125 9.23545 27.9031L8.82659 27.7538C8.6922 27.7042 8.56163 27.6449 8.43194 27.5918C8.17276 27.484 7.92161 27.3756 7.67888 27.2669C7.43704 27.1547 7.2045 27.0379 6.9799 26.9245L6.64882 26.7568C6.54038 26.7019 6.43646 26.6388 6.33312 26.5816C5.92142 26.3467 5.54039 26.1288 5.20196 25.8979C4.86216 25.671 4.55283 25.4663 4.28571 25.2568L3.90762 24.9633L3.58085 24.6973C3.38152 24.5266 3.21715 24.374 3.08452 24.2509C2.81956 24.0047 2.68566 23.864 2.68566 23.864C1.43941 22.5545 1.49074 20.4827 2.80027 19.2364C3.32522 18.7352 4.00248 18.4236 4.72464 18.351L5.11723 18.3114C5.11723 18.3114 5.28179 18.2947 5.57643 18.2808C5.72366 18.2739 5.90438 18.2646 6.11067 18.2625L6.44713 18.2428L6.82112 18.2285C7.08059 18.226 7.37171 18.2007 7.6781 18.1908C7.98352 18.1845 8.31626 18.1534 8.66056 18.1396C9.00545 18.1243 9.37238 18.0861 9.74764 18.0685C10.128 18.0275 10.517 18.0101 10.9219 17.9627L11.2266 17.9324L11.38 17.9198L11.5353 17.9006L11.8483 17.8623L12.1638 17.8303C12.3763 17.7993 12.5906 17.7691 12.8063 17.7447L12.9685 17.7247L13.1319 17.6977L13.4602 17.6498C14.3394 17.5166 15.2451 17.3552 16.1634 17.1581C18.0002 16.7665 19.8874 16.2334 21.7283 15.5506C22.6476 15.2086 23.5544 14.834 24.4471 14.4276C25.3376 14.0245 26.2046 13.5883 27.0493 13.1398L27.3618 12.9671C27.4137 12.9382 27.4661 12.9099 27.5192 12.8826L27.5986 12.8414L27.6664 12.8048L27.937 12.6602L28.0735 12.589L28.143 12.5548L28.1778 12.5378L28.1953 12.5291L28.2185 12.514C28.4666 12.3528 28.708 12.189 28.9539 12.0352L28.9997 12.0062L29.0112 11.9989C29.031 11.9814 28.8807 12.124 28.9487 12.061L28.9671 12.0497L29.0407 12.0044L29.1879 11.9143L29.4805 11.7344C30.2542 11.2521 30.9967 10.7673 31.6842 10.2869C32.3282 9.83799 32.9636 9.37682 33.5899 8.90362C34.1685 8.46959 34.6788 8.06623 35.1107 7.72653C35.2167 7.64062 35.3222 7.56089 35.4196 7.48409C35.5156 7.40926 35.6041 7.3453 35.6882 7.28133L35.9224 7.10492C35.9589 7.08092 35.9968 7.04625 36.0322 7.01627L36.1329 6.92998C36.3869 6.71243 36.5334 6.60135 36.5334 6.60135C37.6607 5.74691 39.2673 5.96818 40.1217 7.09552C40.4221 7.48989 40.6005 7.96357 40.6349 8.45813Z" fill="#FFAE2C"/>
<path id="Vector_2" d="M3.83055 21.2493C3.42953 22.1649 3.07446 22.2861 2.13254 21.8736C1.19054 21.4611 1.03881 21.118 1.43973 20.2024C1.84065 19.2867 4.23157 20.3336 3.83055 21.2493Z" fill="#B28E7F"/>
<path id="Vector_3" d="M42.7057 9.63461C42.7057 9.63461 42.7496 9.83737 42.8073 10.2105L42.8301 10.3585C42.8379 10.4109 42.8478 10.4626 42.8519 10.5298L42.8765 10.9504C42.8839 11.1013 42.895 11.2708 42.8995 11.4411C42.903 11.6084 42.9093 11.788 42.9095 11.9766C42.9147 12.8879 42.8548 13.7984 42.7301 14.7012C42.5879 15.7497 42.3457 16.928 41.9605 18.1877C41.5773 19.4479 41.0418 20.7836 40.3451 22.1423C40.2616 22.3148 40.1667 22.4811 40.0741 22.6511L39.9337 22.9066L39.8628 23.035L39.845 23.0672C39.9049 22.994 39.7533 23.1851 39.7664 23.1702L39.759 23.1836L39.7295 23.2373C39.5733 23.5248 39.4056 23.8082 39.2413 24.0989L39.2258 24.1261L39.2033 24.1601L39.1579 24.2283L39.0666 24.3653L38.8794 24.6379L38.4971 25.1867L38.4003 25.3242L38.3087 25.4492C38.2479 25.533 38.1856 25.6158 38.1226 25.6985L37.7427 26.1981C36.7115 27.5268 35.5067 28.799 34.1677 29.9671C32.8096 31.1485 31.3413 32.197 29.783 33.098C28.2239 34.0016 26.5829 34.756 24.882 35.3511C23.2002 35.9372 21.4922 36.3539 19.8211 36.6003C18.1498 36.8475 16.5176 36.9279 14.9826 36.8739C14.2154 36.8532 13.4711 36.7821 12.7577 36.7014C12.0439 36.6036 11.3601 36.5002 10.711 36.3539L10.2305 36.2521C10.0725 36.2181 9.91712 36.1726 9.76373 36.1338C9.46492 36.0567 9.16719 35.9756 8.8706 35.8905C8.58252 35.8036 8.30414 35.7101 8.03506 35.619L7.63845 35.4842C7.50857 35.4401 7.3824 35.3861 7.25781 35.3387C7.01761 35.245 6.77856 35.1484 6.5407 35.0489C6.31061 34.9586 6.09345 34.8523 5.8852 34.7545C5.46939 34.5551 5.0912 34.3754 4.75943 34.1837C4.46417 34.0184 4.17174 33.8481 3.88227 33.6728C3.67165 33.5355 3.46328 33.3948 3.25724 33.2507C2.92204 33.0176 2.75004 32.8818 2.75004 32.8818C1.1493 31.6166 0.877287 29.2934 2.14244 27.6926C2.64935 27.0492 3.35656 26.5933 4.15193 26.3974L4.5843 26.2906C4.5843 26.2906 4.76551 26.2458 5.09257 26.1835C5.25596 26.1525 5.45637 26.1136 5.68714 26.0758C5.91997 26.0287 6.18435 25.9782 6.47507 25.9271C6.76462 25.8831 7.0859 25.8085 7.42668 25.7488C7.76697 25.6932 8.1338 25.6056 8.5164 25.5353C8.89939 25.4634 9.30335 25.3624 9.71984 25.2832C9.93164 25.2307 10.1442 25.1814 10.3575 25.1353C10.5733 25.0899 10.7928 25.0322 11.0152 24.9782L11.3508 24.8959L11.5202 24.8575L11.6906 24.8114L12.0343 24.7188L12.3817 24.6329L12.7321 24.5308C12.9094 24.4827 13.0867 24.4347 13.2641 24.3868L13.4423 24.3307C13.5614 24.2937 13.6814 24.2603 13.8016 24.2249C14.7627 23.9363 15.7492 23.6119 16.7439 23.2457C18.7342 22.5161 20.7581 21.6205 22.7066 20.5647C23.6794 20.0365 24.6332 19.4737 25.566 18.8776C26.4969 18.2857 27.3965 17.6604 28.269 17.0249L28.5909 16.7822C28.6443 16.7415 28.6985 16.7017 28.7533 16.6628L28.8354 16.6041L28.9053 16.5524L29.1848 16.3478L29.3259 16.2465L29.3982 16.1972L29.4344 16.1726L29.4527 16.1602L29.4762 16.1395C29.7278 15.92 29.9715 15.6986 30.2217 15.4876L30.2683 15.4478L30.28 15.4379C30.2994 15.4152 30.1541 15.5983 30.2199 15.5172L30.2387 15.5017L30.3139 15.4395L30.4639 15.3154L30.7624 15.0679C31.5501 14.406 32.3028 13.7463 32.9946 13.1002C33.6428 12.4962 34.2795 11.8799 34.9042 11.2516C35.4817 10.6746 35.9877 10.1429 36.4163 9.69455C36.5211 9.58171 36.6263 9.47583 36.723 9.37454C36.8184 9.27561 36.9071 9.1902 36.9909 9.10527L37.2245 8.87087C37.2614 8.83825 37.2983 8.79349 37.333 8.75431L37.4319 8.64186C37.6811 8.35838 37.8272 8.21097 37.8272 8.21097C38.951 7.07697 40.7813 7.06884 41.9153 8.19265C42.3137 8.586 42.5884 9.0872 42.7057 9.63461Z" fill="#FFB93E"/>
<path id="Vector_4" d="M3.61377 29.7783C3.31129 30.8652 0.473318 30.0754 0.775795 28.9885C1.07827 27.9016 1.45578 27.7098 2.57401 28.021C3.69223 28.3321 3.91625 28.6913 3.61377 29.7783Z" fill="#A07562"/>
<path id="Vector_5" d="M41.084 0.649141C40.9707 0.618043 40.8522 0.610443 40.7358 0.626808C40.6149 0.52322 40.4795 0.438001 40.3338 0.373895C39.7484 0.117553 39.1121 0.683522 38.7883 1.03831C37.8029 2.11764 40.0204 3.53345 38.4447 6.14055C38.2226 6.50787 38.4119 7.45399 38.7509 7.60239C39.1332 7.76979 39.5837 7.64784 39.9185 7.32323C39.9089 7.34654 39.8998 7.36956 39.8899 7.39307C39.7001 7.83885 40.0622 8.86588 40.4644 8.97784C41.0619 9.14406 41.7124 8.73217 41.9765 8.02731C42.7192 6.04505 43.5126 1.32501 41.084 0.649141Z" fill="#8E6049"/>
<path id="Vector_6" d="M46.2242 8.19366C46.2242 8.19366 46.3251 8.36792 46.4916 8.69655L46.5576 8.82692C46.5807 8.87335 46.6053 8.91733 46.6303 8.98188L46.7852 9.38035C46.8395 9.52356 46.9029 9.6841 46.9606 9.84592C47.0162 10.0046 47.0779 10.1739 47.1376 10.3539C47.4285 11.2227 47.6602 12.1101 47.8312 13.0102C48.0322 14.0554 48.1838 15.256 48.2311 16.5801C48.2805 17.9041 48.2148 19.3493 48.0094 20.8698C47.9879 21.061 47.954 21.2504 47.9233 21.4425L47.876 21.7315L47.852 21.8768L47.846 21.9133C47.8765 21.8186 47.8009 22.0629 47.8079 22.043L47.8053 22.0579L47.7952 22.118C47.7427 22.4391 47.6791 22.7607 47.6206 23.0876L47.615 23.1183L47.6052 23.1582L47.5854 23.2385L47.5454 23.3994C47.5174 23.5069 47.4892 23.6143 47.4611 23.7218L47.2866 24.3721L47.2419 24.5352L47.1977 24.6842C47.1684 24.7841 47.138 24.8837 47.1065 24.9829L46.9178 25.5836C46.3921 27.1861 45.6972 28.7983 44.8417 30.3586C43.9733 31.9363 42.9595 33.4295 41.8135 34.8187C40.6645 36.217 39.3812 37.5034 38.0178 38.6441C36.6546 39.7854 35.211 40.781 33.7425 41.6064C32.2743 42.4329 30.7856 43.0933 29.3405 43.5974C28.6205 43.8552 27.9039 44.0585 27.213 44.2431C26.5153 44.4116 25.8439 44.5651 25.1893 44.6669L24.707 44.7484C24.5482 44.7749 24.3878 44.7897 24.2316 44.8101C23.9185 44.8492 23.6131 44.8836 23.3158 44.9132C23.0174 44.9386 22.7256 44.9549 22.4434 44.9702L22.0271 44.9922C21.8907 44.9996 21.7543 44.9964 21.6217 44.9988C21.0895 45.001 20.5966 45.0037 20.138 44.9701C19.6803 44.9412 19.2646 44.9176 18.8875 44.8656L18.3553 44.7956L17.8885 44.7242C17.5989 44.6723 17.3537 44.6189 17.1558 44.5758C16.7601 44.4895 16.5511 44.4315 16.5511 44.4315C14.6057 43.8919 13.4661 41.8773 14.0058 39.932C14.2399 39.0833 14.7735 38.3481 15.5079 37.8626L15.8687 37.6241C15.8687 37.6241 16.0219 37.5229 16.3053 37.3554C16.4469 37.2717 16.6204 37.1683 16.8232 37.0575L17.145 36.8612L17.5072 36.6495C17.7626 36.5097 18.0368 36.3301 18.3349 36.1569C18.634 35.9879 18.9465 35.779 19.2803 35.5802C19.6138 35.3797 19.9566 35.1441 20.3191 34.9232C20.6737 34.6766 21.0498 34.4477 21.4251 34.1793L21.7105 33.9828L21.8556 33.8862L21.9988 33.782L22.2878 33.5723L22.5827 33.3666L22.8745 33.145L23.1716 32.927L23.3211 32.8174L23.468 32.7003L23.7662 32.4705C24.562 31.8502 25.3666 31.1832 26.1602 30.4707C26.9537 29.7583 27.7397 29.0048 28.4981 28.2097C29.2569 27.4152 29.9875 26.5793 30.6848 25.7182C32.0755 23.9923 33.3225 22.1562 34.3927 20.3185L34.5886 19.9729C34.621 19.9154 34.654 19.8581 34.6885 19.8016L34.7395 19.7165L34.7816 19.6427L34.9502 19.3508L35.0362 19.2057L35.0811 19.1337L35.1036 19.0977L35.1149 19.0796L35.1282 19.0515C35.272 18.752 35.4086 18.4541 35.5539 18.163L35.5809 18.1083L35.5876 18.0947C35.5977 18.0652 35.525 18.2999 35.5582 18.1956L35.5689 18.1742L35.6117 18.0889L35.6974 17.9188L35.8675 17.5802C36.3123 16.679 36.7228 15.7974 37.0822 14.9549C37.418 14.1701 37.7382 13.3787 38.0427 12.5812C38.3246 11.8506 38.5596 11.1899 38.759 10.6339C38.8066 10.4951 38.857 10.3624 38.9019 10.2371C38.9465 10.115 38.9899 10.0098 39.0297 9.90557L39.1416 9.61789C39.161 9.57743 39.1758 9.5217 39.1907 9.47302L39.233 9.33314C39.3398 8.98051 39.4088 8.79137 39.4088 8.79137C40.1245 6.83212 42.2929 5.82409 44.2521 6.53973C45.1154 6.85485 45.7963 7.45637 46.2242 8.19366Z" fill="#FFCE6C"/>
<path id="Vector_7" d="M45.554 17.7073C45.554 17.7073 45.6148 17.9897 45.6763 18.4782C45.6844 18.5393 45.6931 18.6037 45.6999 18.671L45.7113 18.7743L45.7167 18.8897C45.7248 19.0474 45.7258 19.218 45.7304 19.4021C45.7326 19.585 45.7333 19.7844 45.7282 19.9883L45.6866 20.619C45.6585 21.0613 45.5821 21.5311 45.4962 22.0311C45.4772 22.1569 45.4473 22.2809 45.4183 22.4071L45.3271 22.7898C45.2633 23.0474 45.2012 23.313 45.1129 23.5733C45.0289 23.8404 44.9415 24.1064 44.8508 24.3712C44.7505 24.636 44.6411 24.901 44.5315 25.1688C44.4739 25.3012 44.4231 25.438 44.3584 25.568L44.1676 25.9612L43.972 26.3542C43.9085 26.4864 43.8367 26.6139 43.763 26.7404C43.6184 26.9945 43.4715 27.2472 43.3221 27.4985C43.1652 27.7417 43.005 27.9829 42.8417 28.2218C42.6847 28.4627 42.5102 28.6882 42.3384 28.9107C42.1643 29.1316 41.9995 29.3549 41.819 29.5596C41.459 29.9699 41.1106 30.364 40.7465 30.7058L40.481 30.9612C40.3932 31.0441 40.3089 31.1278 40.2187 31.2033C40.039 31.3548 39.8703 31.5044 39.7005 31.6403C39.3703 31.9206 39.0434 32.1502 38.754 32.3512C38.6084 32.4507 38.4743 32.5453 38.3458 32.6273C38.2261 32.7007 38.1054 32.7722 37.9837 32.8421C37.8139 32.9411 37.6417 33.036 37.4672 33.1267C37.3462 33.1894 37.2801 33.2206 37.2801 33.2206C37.129 33.2922 36.959 33.3142 36.7946 33.2835C36.6302 33.2528 36.4797 33.1709 36.3646 33.0496C36.2494 32.9282 36.1756 32.7737 36.1535 32.6079C36.1314 32.4421 36.1623 32.2735 36.2416 32.1263L36.2554 32.1013L36.3517 31.925C36.4159 31.8118 36.5104 31.647 36.6363 31.4459C36.698 31.3441 36.7689 31.2346 36.8458 31.1157C36.9177 30.992 36.9991 30.8626 37.0845 30.7236C37.256 30.4464 37.4591 30.146 37.6629 29.8071C37.765 29.6377 37.8795 29.4697 37.9929 29.2921C38.1036 29.1123 38.2151 28.9254 38.334 28.7377C38.5773 28.366 38.8095 27.9604 39.065 27.5554C39.1311 27.4556 39.1903 27.3502 39.2508 27.2448L39.4372 26.9294L39.629 26.6131C39.6942 26.5077 39.7512 26.397 39.8141 26.2893C39.9355 26.0714 40.0648 25.8563 40.1905 25.6383C40.3092 25.416 40.4304 25.1951 40.554 24.9756C40.6821 24.758 40.7894 24.5306 40.9087 24.3099C41.0254 24.0882 41.1493 23.8705 41.2543 23.6467C41.3643 23.4271 41.4763 23.2084 41.5901 22.9908C41.691 22.7733 41.795 22.5572 41.9021 22.3426C42.012 22.1317 42.1029 21.9185 42.1998 21.7114L42.345 21.4043C42.3947 21.3053 42.4412 21.2048 42.4843 21.1028C42.5691 20.9073 42.6562 20.7128 42.7457 20.5195C42.84 20.3326 42.9102 20.1464 42.9864 19.9687L43.2133 19.4576C43.2856 19.2973 43.3415 19.1473 43.4055 19.004C43.4694 18.8615 43.526 18.7262 43.5853 18.6012L43.6282 18.5089L43.6652 18.4117C43.6887 18.3483 43.7134 18.2882 43.7365 18.2311C43.9188 17.7736 44.0485 17.5155 44.0485 17.5155C44.1444 17.3249 44.3121 17.1801 44.5146 17.1131C44.7172 17.0461 44.9381 17.0623 45.1288 17.1581C45.3539 17.271 45.5035 17.4793 45.554 17.7073Z" fill="#FFDF95"/>
<path id="Vector_8" d="M16.2296 41.2262C16.3421 42.3489 16.0599 42.6646 14.9051 42.7804C13.7502 42.8961 13.411 42.6427 13.2984 41.5201C13.1859 40.3975 13.4681 40.0818 14.623 39.966C15.7778 39.8502 16.117 40.1036 16.2296 41.2262Z" fill="#8E6049"/>
<path id="Vector_9" d="M43.0209 8.47196C43.6379 8.41015 44.0947 7.79031 44.085 7.03755C44.0578 4.92089 45.6858 1.6341 43.4414 0.486096C40.7845 -0.872993 38.6956 0.994078 38.5735 1.52224C38.2018 3.12934 41.0369 3.38862 41.9311 7.88434C42.0257 8.35941 42.6054 8.51359 43.0209 8.47196Z" fill="#966C5A"/>
<path id="Vector_10" d="M42.7055 3.67949C41.9915 4.83738 42.7063 8.50355 43.0209 8.47201C43.6379 8.4101 45.2814 -0.497986 42.7055 3.67949Z" fill="#1AC84B"/>
</g>
</svg>
